<svg id="Layer_1" data-name="Layer 1" xmlns="http://www.w3.org/2000/svg" viewBox="0 0 100 100"><path d="M86.57,66a5.74,5.74,0,0,1-5.65,5.65H32.77l14.69,14.7a5.67,5.67,0,1,1-7.91,8.13.11.11,0,0,0-.11-.11L15,69.91a5.64,5.64,0,0,1,4.07-9.6H80.81A5.59,5.59,0,0,1,86.46,66Z"/><path d="M84.88,38.15a5.65,5.65,0,0,1-4,1.58H19.09a5.59,5.59,0,0,1-5.65-5.65,5.66,5.66,0,0,1,5.65-5.65H67.24L52.55,13.73a5.69,5.69,0,0,1-.11-8,5.57,5.57,0,0,1,7.91-.12c.11,0,.11.12.22.12L85,30.12A5.7,5.7,0,0,1,84.88,38.15Z"/></svg>