<svg id="Layer_1" data-name="Layer 1" xmlns="http://www.w3.org/2000/svg" viewBox="0 0 100 100"><path d="M4.05,73.35A10.14,10.14,0,0,0,14.18,83.48H85.87A10.14,10.14,0,0,0,96,73.35V26.65A10.14,10.14,0,0,0,85.87,16.52H14.17A10.14,10.14,0,0,0,4,26.65v6.68c0,.12,0,.23,0,.37s0,.23,0,.36v39.3Zm81.81,4.92H14.17a4.93,4.93,0,0,1-4.92-4.92v-37H90.78V73.35a4.93,4.93,0,0,1-4.92,4.92ZM14.17,21.73H85.86a4.93,4.93,0,0,1,4.93,4.92v4.43H9.26V26.65a4.92,4.92,0,0,1,4.92-4.92Z"/><path d="M36.25,67.56H16.64a2.61,2.61,0,0,0,0,5.21H36.25a2.61,2.61,0,0,0,0-5.21Z"/><path d="M83.35,67.56H78.53a2.61,2.61,0,0,0,0,5.21h4.82a2.61,2.61,0,0,0,0-5.21Z"/></svg>