<svg id="Layer_1" data-name="Layer 1" xmlns="http://www.w3.org/2000/svg" viewBox="0 0 100 100"><path d="M50,98a3.26,3.26,0,0,1-2.46-1.14L21.32,66.1c-20-22.7-5.85-61.8,25-63.82C80.48-1.83,101,40.82,78.64,66.1L52.44,96.86A3.23,3.23,0,0,1,50,98Zm.55-89.49c-27.66-.87-42,33.06-24.29,53.4L50,89.79S73.73,61.9,73.74,61.9C91.3,42.41,77.11,8.17,50.53,8.5ZM50,61.25a20.6,20.6,0,0,1-21-21.1c0-26.87,40.47-29.09,42.08,0h0A21.13,21.13,0,0,1,50,61.25ZM50,25.5h0a14.65,14.65,0,1,0,.06,29.29c19.2-.66,19.23-28.63-.06-29.29Z"/></svg>