<svg id="Layer_1" data-name="Layer 1" xmlns="http://www.w3.org/2000/svg" viewBox="0 0 144 144"><path d="M92.46,12l.85.35a5.61,5.61,0,0,1-1.85,10.87c-3.51,0-7,0-10.53,0H39.17c-5.16,0-8.24,3.06-8.24,8.19v80.94c0,5.13,3.09,8.2,8.24,8.2q26,0,51.94,0a5.61,5.61,0,0,1,5.57,7.38,5.54,5.54,0,0,1-5.2,3.84c-2.14,0-4.28,0-6.43,0q-23.22,0-46.44,0a18.62,18.62,0,0,1-18.55-15.22,20.43,20.43,0,0,1-.35-4.06q0-40.59,0-81.17c0-10,6.33-17.47,16.19-19.15A1.83,1.83,0,0,0,36.3,12Z"/><path d="M104.8,66.28c-.48-.51-.76-.82-1.06-1.11-5.29-5.3-10.6-10.57-15.87-15.89a5.59,5.59,0,0,1,2.44-9.54,5.38,5.38,0,0,1,5.37,1.5c2.16,2.13,4.3,4.29,6.45,6.44l19.69,19.68c3,3,3,6.09,0,9.06Q108.89,89.37,95.93,102.3c-2.53,2.53-6.16,2.52-8.39,0a5.61,5.61,0,0,1,.39-7.9Q94,88.31,100.17,82.2l4.71-4.69H61a5.69,5.69,0,0,1-5.74-3.93,5.61,5.61,0,0,1,5.24-7.29c3-.05,6.08,0,9.12,0H104.8Z"/></svg>