<svg id="Layer_1" data-name="Layer 1" xmlns="http://www.w3.org/2000/svg" viewBox="0 0 100 100"><defs><style>.cls-1{fill-rule:evenodd;}</style></defs><path class="cls-1" d="M14.67,5a7.39,7.39,0,0,0-7.39,7.39V87.61A7.39,7.39,0,0,0,14.67,95h54A7.35,7.35,0,0,0,71,94.63a3.58,3.58,0,0,0,1.43.29H89a3.7,3.7,0,0,0,3.7-3.7V49.35A3.7,3.7,0,0,0,89,45.66h-13V12.39A7.39,7.39,0,0,0,68.67,5Zm0,7.39h54V87.61h-54ZM24.92,23.65a3.69,3.69,0,0,0,0,7.38h16.7a3.69,3.69,0,1,0,0-7.38ZM21.06,43.54a3.7,3.7,0,0,1,3.7-3.69H60.55a3.69,3.69,0,0,1,0,7.38H24.76A3.7,3.7,0,0,1,21.06,43.54Zm3.7,12.51a3.7,3.7,0,1,0,0,7.39H60.55a3.7,3.7,0,0,0,0-7.39Zm-3.7,19.89a3.7,3.7,0,0,1,3.7-3.69H60.55a3.7,3.7,0,0,1,0,7.39H24.76A3.7,3.7,0,0,1,21.06,75.94ZM76.11,87.53V53.05h9.22V87.53Z"/></svg>