<svg id="Layer_1" data-name="Layer 1" xmlns="http://www.w3.org/2000/svg" viewBox="0 0 100 100"><path d="M86,27.5H20.75a6.75,6.75,0,0,1,0-13.5H72.5a3,3,0,0,1,3,3v3a3,3,0,0,0,6,0V17a9,9,0,0,0-9-9H20.75A12.76,12.76,0,0,0,8,20.75V74A18,18,0,0,0,26,92H86a6,6,0,0,0,6-6V33.5a6,6,0,0,0-6-6ZM86,86H26A12,12,0,0,1,14,74V31.57a12.73,12.73,0,0,0,6.75,1.93H86Z"/><path d="M68.5,54a4.44,4.44,0,0,0-2.13-.46h-1c0-.29,0-.57,0-.86,0-.46,0-.89-.08-1.33h1a4.7,4.7,0,0,0,2.13-.43,1.62,1.62,0,0,0,.87-1.59,1.8,1.8,0,0,0-.87-1.7,4.33,4.33,0,0,0-2.13-.49H64.29c-.13-.29-.25-.58-.4-.86a12.16,12.16,0,0,0-4.15-4.47,10.39,10.39,0,0,0-5.65-1.64H40.78a2.85,2.85,0,0,0-2.1.84,2.82,2.82,0,0,0-.84,2.1v4H35.48a4.35,4.35,0,0,0-2.1.46,1.75,1.75,0,0,0-.84,1.68,1.68,1.68,0,0,0,.84,1.64,4.48,4.48,0,0,0,2.1.43h2.36v2.19H35.48a3.42,3.42,0,0,0-2.1.61,1.76,1.76,0,0,0-.84,1.46,2,2,0,0,0,.84,1.79,3.54,3.54,0,0,0,2.1.58h2.36V77.57a2.93,2.93,0,0,0,.78,2.1,2.59,2.59,0,0,0,2,.84,2.64,2.64,0,0,0,2-.84,2.93,2.93,0,0,0,.78-2.1V65.24H54.09a10.13,10.13,0,0,0,5.65-1.7A12.48,12.48,0,0,0,63.89,59c.18-.33.32-.67.47-1h2a4.12,4.12,0,0,0,2.13-.52,1.75,1.75,0,0,0,.87-1.62A1.89,1.89,0,0,0,68.5,54Zm-25.07.17V51h16a8.74,8.74,0,0,1,.18,1.73,8.09,8.09,0,0,1-.15,1.49Zm13.4-7.52A7.06,7.06,0,0,1,58.14,48H43.43V45.7H54.09A4.41,4.41,0,0,1,56.83,46.65Zm0,12.08a4.32,4.32,0,0,1-2.74,1H43.43v-2.6H58.28A6.65,6.65,0,0,1,56.83,58.73Z"/></svg>